<?xml version="1.0" encoding="UTF-8" standalone="no"?>
<!-- Created with Inkscape (http://www.inkscape.org/) -->

<svg
   xmlns:osb="http://www.openswatchbook.org/uri/2009/osb"
   xmlns:dc="http://purl.org/dc/elements/1.1/"
   xmlns:cc="http://creativecommons.org/ns#"
   xmlns:rdf="http://www.w3.org/1999/02/22-rdf-syntax-ns#"
   xmlns:svg="http://www.w3.org/2000/svg"
   xmlns="http://www.w3.org/2000/svg"
   xmlns:sodipodi="http://sodipodi.sourceforge.net/DTD/sodipodi-0.dtd"
   xmlns:inkscape="http://www.inkscape.org/namespaces/inkscape"
   width="210mm"
   height="297mm"
   viewBox="0 0 210 297"
   version="1.1"
   id="svg8"
   inkscape:version="0.92.3 (2405546, 2018-03-11)"
   sodipodi:docname="logo.svg">
  <defs
     id="defs2">
    <linearGradient
       id="linearGradient5095"
       osb:paint="solid">
      <stop
         style="stop-color:#008ced;stop-opacity:1;"
         offset="0"
         id="stop5093" />
    </linearGradient>
  </defs>
  <sodipodi:namedview
     id="base"
     pagecolor="#ffffff"
     bordercolor="#666666"
     borderopacity="1.0"
     inkscape:pageopacity="0.0"
     inkscape:pageshadow="2"
     inkscape:zoom="0.49497475"
     inkscape:cx="669.46111"
     inkscape:cy="592.11607"
     inkscape:document-units="mm"
     inkscape:current-layer="layer1"
     showgrid="false"
     inkscape:window-width="1366"
     inkscape:window-height="705"
     inkscape:window-x="-8"
     inkscape:window-y="-8"
     inkscape:window-maximized="1" />
  <metadata
     id="metadata5">
    <rdf:RDF>
      <cc:Work
         rdf:about="">
        <dc:format>image/svg+xml</dc:format>
        <dc:type
           rdf:resource="http://purl.org/dc/dcmitype/StillImage" />
        <dc:title />
      </cc:Work>
    </rdf:RDF>
  </metadata>
  <g
     inkscape:label="Camada 1"
     inkscape:groupmode="layer"
     id="layer1">
    <g
       id="text4818"
       style="font-style:normal;font-variant:normal;font-weight:normal;font-stretch:normal;font-size:33.37234497px;line-height:1.25;font-family:Montserrat;-inkscape-font-specification:Montserrat;letter-spacing:0px;word-spacing:0px;fill:#656464;fill-opacity:1;stroke:none;stroke-width:0.83430862"
       aria-label="prezaty"
       transform="translate(9.0871583,-12.294399)"
       inkscape:export-xdpi="96"
       inkscape:export-ydpi="96">
      <path
         inkscape:connector-curvature="0"
         id="path4786"
         style="font-style:normal;font-variant:normal;font-weight:normal;font-stretch:normal;font-family:Montserrat;-inkscape-font-specification:Montserrat;fill:#656464;fill-opacity:1;stroke-width:0.83430862"
         d="m 75.829484,139.91726 q 3.570841,0 6.107139,2.46956 2.536298,2.46955 2.536298,6.57435 0,4.1048 -2.536298,6.67447 -2.502926,2.56967 -5.873533,2.56967 -3.337234,0 -6.007022,-2.93677 v 9.14403 h -3.737702 v -24.22833 h 3.737702 v 3.10363 q 2.202575,-3.37061 5.773416,-3.37061 z m -5.84016,9.1774 q 0,2.5363 1.535127,4.17154 1.535128,1.60188 3.737703,1.60188 2.202575,0 3.83782,-1.60188 1.635245,-1.60187 1.635245,-4.13817 0,-2.56967 -1.601873,-4.23829 -1.601873,-1.70199 -3.83782,-1.70199 -2.235947,0 -3.771075,1.70199 -1.535127,1.66862 -1.535127,4.20492 z" />
      <path
         inkscape:connector-curvature="0"
         id="path4788"
         style="font-style:normal;font-variant:normal;font-weight:normal;font-stretch:normal;font-family:Montserrat;-inkscape-font-specification:Montserrat;fill:#656464;fill-opacity:1;stroke-width:0.83430862"
         d="m 98.051298,143.68834 q -2.769908,0 -4.171547,1.80211 -1.401638,1.8021 -1.401638,4.83899 v 7.60889 H 88.74041 v -17.75409 h 3.737703 v 3.57084 q 0.901053,-1.66861 2.436181,-2.73653 1.568504,-1.06791 3.303864,-1.10129 l 0.0334,3.77108 q -0.10012,0 -0.20023,0 z" />
      <path
         inkscape:connector-curvature="0"
         id="path4790"
         style="font-style:normal;font-variant:normal;font-weight:normal;font-stretch:normal;font-family:Montserrat;-inkscape-font-specification:Montserrat;fill:#656464;fill-opacity:1;stroke-width:0.83430862"
         d="m 118.49133,150.69653 h -13.91626 q 0.13349,1.9356 1.76873,3.137 1.63525,1.16803 3.7377,1.16803 3.33724,0 5.0726,-2.10245 l 2.13583,2.33606 q -2.87002,2.97014 -7.47541,2.97014 -3.7377,0 -6.37411,-2.46955 -2.60305,-2.50293 -2.60305,-6.67447 0,-4.20492 2.66979,-6.67447 2.66979,-2.46956 6.274,-2.46956 3.63759,0 6.17389,2.20258 2.53629,2.1692 2.53629,6.00702 z m -13.91626,-2.93676 h 10.17856 q 0,-2.23595 -1.40164,-3.43736 -1.40164,-1.2014 -3.47072,-1.2014 -2.03571,0 -3.67096,1.26815 -1.63524,1.23478 -1.63524,3.37061 z" />
      <path
         inkscape:connector-curvature="0"
         id="path4792"
         style="font-style:normal;font-variant:normal;font-weight:normal;font-stretch:normal;font-family:Montserrat;-inkscape-font-specification:Montserrat;fill:#656464;fill-opacity:1;stroke-width:0.83430862"
         d="m 122.00169,143.45473 v -3.20374 h 13.8829 v 3.37061 l -9.97834,11.07961 h 10.51229 v 3.23712 h -15.0843 v -3.63758 l 9.71136,-10.84602 z" />
      <path
         inkscape:connector-curvature="0"
         id="path4794"
         style="font-style:normal;font-variant:normal;font-weight:normal;font-stretch:normal;font-family:Montserrat;-inkscape-font-specification:Montserrat;fill:#656464;fill-opacity:1;stroke-width:0.83430862"
         d="m 155.00746,157.93833 h -3.40398 v -2.36944 q -2.20258,2.63642 -5.90691,2.63642 -2.7699,0 -4.60538,-1.5685 -1.80211,-1.5685 -1.80211,-4.17154 0,-2.63642 1.9356,-3.93794 1.9356,-1.30152 5.23946,-1.30152 h 4.83899 v -0.66745 q 0,-3.53747 -3.93794,-3.53747 -2.46955,0 -5.13934,1.80211 l -1.66862,-2.33606 q 3.23712,-2.56968 7.34192,-2.56968 3.137,0 5.10597,1.60188 2.00234,1.5685 2.00234,4.97248 z m -3.7377,-6.60772 v -1.50176 h -4.20492 q -4.03805,0 -4.03805,2.5363 0,1.30152 1.00117,2.00234 1.00117,0.66745 2.7699,0.66745 1.80211,0 3.137,-1.00117 1.3349,-1.00117 1.3349,-2.70316 z" />
      <path
         inkscape:connector-curvature="0"
         id="path4796"
         style="font-style:normal;font-variant:normal;font-weight:normal;font-stretch:normal;font-family:Montserrat;-inkscape-font-specification:Montserrat;fill:#656464;fill-opacity:1;stroke-width:0.83430862"
         d="m 164.65311,143.18775 v 9.01054 q 0,1.26815 0.66745,2.03571 0.66745,0.73419 1.86885,0.73419 1.20141,0 2.30269,-1.16803 l 1.53513,2.63642 q -1.96897,1.76873 -4.37178,1.76873 -2.36943,0 -4.07142,-1.63524 -1.66862,-1.66862 -1.66862,-4.4719 v -8.91042 h -2.23595 v -3.00351 h 2.23595 v -5.57318 h 3.7377 v 5.57318 h 4.67213 v 3.00351 z" />
      <path
         inkscape:connector-curvature="0"
         id="path4798"
         style="font-style:normal;font-variant:normal;font-weight:normal;font-stretch:normal;font-family:Montserrat;-inkscape-font-specification:Montserrat;fill:#656464;fill-opacity:1;stroke-width:0.83430862"
         d="m 176.23227,165.01327 q -2.43618,0 -4.40515,-1.76874 l 1.70199,-3.03688 q 1.16803,1.10129 2.40281,1.10129 1.26815,0 2.03571,-0.90106 0.80094,-0.90105 0.80094,-1.96896 0,-0.46722 -7.17506,-18.25468 h 4.00469 l 5.3062,13.08196 5.3062,-13.08196 h 4.00468 l -8.61006,21.09133 q -0.76757,1.73536 -2.20258,2.73653 -1.43501,1.00117 -3.17037,1.00117 z" />
    </g>
    <g
       id="g4975"
       transform="matrix(1.0644418,0,0,1.0644418,0.81223833,79.911829)"
       style="fill:#1e8ac8;fill-opacity:1"
       inkscape:export-xdpi="96"
       inkscape:export-ydpi="96">
      <path
         inkscape:connector-curvature="0"
         id="rect4824"
         d="m -19.503004,63.224285 h 8.457253 v 8.356674 h -8.457253 z"
         inkscape:transform-center-y="-0.48184891"
         inkscape:transform-center-x="-2.6501718"
         style="fill:#1e8ac8;fill-opacity:1;fill-rule:nonzero;stroke:none;stroke-width:0.40343761;stroke-miterlimit:4;stroke-dasharray:none;stroke-opacity:1"
         transform="rotate(-45)" />
      <path
         inkscape:connector-curvature="0"
         id="rect4826"
         d="m -6.2756901,76.351021 h 8.4572535 v 8.356674 h -8.4572535 z"
         inkscape:transform-center-y="-0.48185508"
         inkscape:transform-center-x="-2.6501656"
         style="fill:#1e8ac8;fill-opacity:1;fill-rule:nonzero;stroke:none;stroke-width:0.40343761;stroke-miterlimit:4;stroke-dasharray:none;stroke-opacity:1"
         transform="rotate(-45)" />
      <path
         inkscape:connector-curvature="0"
         id="rect4828"
         d="m -32.730324,50.09753 h 8.457254 v 8.356675 h -8.457254 z"
         inkscape:transform-center-y="-0.48185817"
         inkscape:transform-center-x="-2.650168"
         style="fill:#1e8ac8;fill-opacity:1;fill-rule:nonzero;stroke:none;stroke-width:0.40343761;stroke-miterlimit:4;stroke-dasharray:none;stroke-opacity:1"
         transform="rotate(-45)" />
      <path
         inkscape:connector-curvature="0"
         id="rect4830"
         d="m -6.2756901,63.224285 h 8.4572535 v 8.356674 h -8.4572535 z"
         inkscape:transform-center-y="-0.48184887"
         inkscape:transform-center-x="-2.6501718"
         style="fill:#1e8ac8;fill-opacity:1;fill-rule:nonzero;stroke:none;stroke-width:0.40343761;stroke-miterlimit:4;stroke-dasharray:none;stroke-opacity:1"
         transform="rotate(-45)" />
      <path
         inkscape:connector-curvature="0"
         id="rect4832"
         d="M -6.2756901,55.344616 H 2.1815634 V 63.70129 H -6.2756901 Z"
         inkscape:transform-center-y="-0.48184742"
         inkscape:transform-center-x="-2.6501732"
         style="fill:#1e8ac8;fill-opacity:1;fill-rule:nonzero;stroke:none;stroke-width:0.40343761;stroke-miterlimit:4;stroke-dasharray:none;stroke-opacity:1"
         transform="rotate(-45)" />
      <path
         inkscape:connector-curvature="0"
         id="rect4834"
         d="m -19.503004,50.09753 h 8.457253 v 8.356675 h -8.457253 z"
         inkscape:transform-center-y="-0.48185544"
         inkscape:transform-center-x="-2.6501653"
         style="fill:#1e8ac8;fill-opacity:1;fill-rule:nonzero;stroke:none;stroke-width:0.40343761;stroke-miterlimit:4;stroke-dasharray:none;stroke-opacity:1"
         transform="rotate(-45)" />
      <path
         inkscape:connector-curvature="0"
         id="rect4836"
         d="m -11.522753,50.09753 h 8.4572537 v 8.356675 h -8.4572537 z"
         inkscape:transform-center-y="-0.48186225"
         inkscape:transform-center-x="-2.6501721"
         style="fill:#1e8ac8;fill-opacity:1;fill-rule:nonzero;stroke:none;stroke-width:0.40343761;stroke-miterlimit:4;stroke-dasharray:none;stroke-opacity:1"
         transform="rotate(-45)" />
      <path
         inkscape:connector-curvature="0"
         id="rect4838"
         d="M -6.2756901,50.097576 H 2.1815634 V 58.45425 H -6.2756901 Z"
         inkscape:transform-center-y="-0.48184367"
         inkscape:transform-center-x="-2.650177"
         style="fill:#1e8ac8;fill-opacity:1;fill-rule:nonzero;stroke:none;stroke-width:0.40343761;stroke-miterlimit:4;stroke-dasharray:none;stroke-opacity:1"
         transform="rotate(-45)" />
      <path
         inkscape:connector-curvature="0"
         id="rect4840"
         d="m -33.241409,63.55595 h 8.457253 v 8.356674 h -8.457253 z"
         inkscape:transform-center-y="-0.48184957"
         inkscape:transform-center-x="-2.6501707"
         style="fill:#1e8ac8;fill-opacity:1;fill-rule:nonzero;stroke:none;stroke-width:0.40343761;stroke-miterlimit:4;stroke-dasharray:none;stroke-opacity:1"
         transform="rotate(-45)" />
      <path
         inkscape:connector-curvature="0"
         id="rect4842"
         d="m -19.646727,77.15065 h 8.457254 v 8.356674 h -8.457254 z"
         inkscape:transform-center-y="-0.48184775"
         inkscape:transform-center-x="-2.6501735"
         style="fill:#1e8ac8;fill-opacity:1;fill-rule:nonzero;stroke:none;stroke-width:0.40343761;stroke-miterlimit:4;stroke-dasharray:none;stroke-opacity:1"
         transform="rotate(-45)" />
    </g>
    <flowRoot
       xml:space="preserve"
       id="flowRoot6609"
       style="fill:black;fill-opacity:1;stroke:none;font-family:sans-serif;font-style:normal;font-weight:normal;font-size:40px;line-height:1.25;letter-spacing:0px;word-spacing:0px"><flowRegion
         id="flowRegion6611"><rect
           id="rect6613"
           width="858.62964"
           height="270.72089"
           x="-52.527931"
           y="720.47894" /></flowRegion><flowPara
         id="flowPara6615" /></flowRoot>  </g>
</svg>
